<svg width="403" height="51" viewBox="0 0 403 51" fill="none" xmlns="http://www.w3.org/2000/svg">
<g clip-path="url(#clip0_73_2)">
<path d="M101.187 46.64C99.4806 46.64 97.5819 46.384 95.4913 45.872C93.4006 45.3173 91.3313 43.9947 89.2833 41.904L86.5953 39.216C85.3153 37.936 84.0779 36.8907 82.8833 36.08C81.7313 35.2693 80.4086 34.672 78.9153 34.288C77.4219 33.8613 75.5446 33.648 73.2833 33.648H72.7713V46H60.2913V13.488L59.6513 8.304H89.2833C92.0139 8.304 94.2113 8.64533 95.8753 9.328C97.5819 9.968 98.8833 10.8427 99.7793 11.952C100.718 13.0187 101.358 14.2347 101.699 15.6C102.041 16.9653 102.211 18.352 102.211 19.76V20.976C102.211 23.536 101.55 25.84 100.227 27.888C98.9473 29.8933 96.8993 31.3227 94.0833 32.176C95.1499 32.816 96.1526 33.4773 97.0913 34.16C98.0726 34.8 99.1819 35.4827 100.419 36.208C101.827 37.0187 103.129 37.616 104.323 38C105.561 38.3413 106.585 38.5547 107.395 38.64C108.206 38.7253 108.675 38.768 108.803 38.768L106.883 46C106.371 46.128 105.582 46.256 104.515 46.384C103.491 46.5547 102.382 46.64 101.187 46.64ZM80.1953 25.136C81.2619 25.136 82.2859 25.1147 83.2673 25.072C84.2913 25.0293 85.2086 24.9653 86.0193 24.88C87.4699 24.7093 88.4513 24.2613 88.9633 23.536C89.5179 22.768 89.7952 21.8507 89.7952 20.784V20.08C89.7952 19.1413 89.5179 18.416 88.9633 17.904C88.4513 17.392 87.4913 17.136 86.0833 17.136H72.7713V24.88C73.8379 24.9227 75.0113 24.9867 76.2913 25.072C77.5713 25.1147 78.8726 25.136 80.1953 25.136ZM122.845 46C119.09 46 116.402 45.296 114.781 43.888C113.159 42.48 112.349 40.1333 112.349 36.848C112.349 33.8187 113.181 31.6213 114.845 30.256C116.551 28.8907 119.218 28.208 122.845 28.208H124.829C127.218 28.208 129.501 28.2933 131.677 28.464C133.853 28.6347 135.73 28.8053 137.309 28.976V27.952C137.309 27.3547 137.181 26.7787 136.925 26.224C136.669 25.6693 135.773 25.392 134.237 25.392H131.037C126.386 25.392 122.802 25.4773 120.285 25.648C117.767 25.776 116.21 25.904 115.613 26.032L114.909 19.248C114.909 18.8213 115.655 18.48 117.149 18.224C118.642 17.9253 120.69 17.712 123.293 17.584C125.895 17.4133 128.861 17.328 132.189 17.328H138.589C141.405 17.328 143.559 17.7547 145.053 18.608C146.546 19.4187 147.57 20.528 148.125 21.936C148.679 23.344 148.957 24.9653 148.957 26.8V46H139.869L137.373 44.72C136.349 44.9333 134.706 45.2107 132.445 45.552C130.226 45.8507 127.666 46 124.765 46H122.845ZM126.557 38.448H135.389C136.327 38.448 136.882 38.3627 137.053 38.192C137.223 38.0213 137.309 37.488 137.309 36.592V34.352H126.557C125.746 34.352 125.149 34.5013 124.765 34.8C124.381 35.0987 124.189 35.6747 124.189 36.528C124.189 37.3387 124.381 37.872 124.765 38.128C125.149 38.3413 125.746 38.448 126.557 38.448ZM156.309 46V17.328H165.589L168.149 18.608C169.941 18.2667 172.095 17.968 174.613 17.712C177.173 17.456 179.562 17.328 181.781 17.328H184.981C187.114 17.328 188.757 17.6267 189.909 18.224C191.061 18.8213 191.871 19.568 192.341 20.464C192.853 21.36 193.151 22.2773 193.237 23.216C193.365 24.112 193.429 24.88 193.429 25.52V46H181.717V27.952C181.717 26.2453 180.693 25.392 178.645 25.392H170.069C169.258 25.392 168.725 25.4773 168.469 25.648C168.255 25.776 168.149 26.16 168.149 26.8V46H156.309ZM209.897 46C207.081 46 204.969 45.5947 203.561 44.784C202.195 43.9307 201.278 42.8 200.809 41.392C200.382 39.9413 200.169 38.2987 200.169 36.464V26.8C200.169 25.1787 200.382 23.664 200.809 22.256C201.278 20.8053 202.195 19.632 203.561 18.736C204.969 17.7973 207.081 17.328 209.897 17.328H211.881C214.995 17.328 217.811 17.4133 220.329 17.584C222.889 17.7547 224.638 17.904 225.577 18.032V5.424H237.417V46H228.137L225.641 44.72C223.849 45.0187 221.907 45.3173 219.817 45.616C217.769 45.872 215.102 46 211.817 46H209.897ZM215.081 37.936H223.593C224.489 37.936 225.043 37.8293 225.257 37.616C225.47 37.4027 225.577 36.8693 225.577 36.016V25.84C224.51 25.7547 223.251 25.6693 221.801 25.584C220.35 25.456 218.75 25.392 217.001 25.392H215.081C213.033 25.392 212.009 26.2453 212.009 27.952V35.376C212.009 36.2293 212.243 36.8693 212.713 37.296C213.182 37.7227 213.971 37.936 215.081 37.936ZM254.273 46C251.457 46 249.345 45.5947 247.937 44.784C246.529 43.9733 245.591 42.864 245.121 41.456C244.695 40.0053 244.481 38.3413 244.481 36.464V26.8C244.481 25.008 244.716 23.408 245.185 22C245.655 20.5493 246.572 19.4187 247.937 18.608C249.345 17.7547 251.457 17.328 254.273 17.328H272.065C274.881 17.328 276.972 17.7547 278.337 18.608C279.745 19.4187 280.663 20.5493 281.089 22C281.559 23.408 281.793 25.008 281.793 26.8V36.464C281.793 38.3413 281.559 40.0053 281.089 41.456C280.663 42.864 279.745 43.9733 278.337 44.784C276.972 45.5947 274.881 46 272.065 46H254.273ZM259.393 37.936H267.009C269.057 37.936 270.06 37.0827 270.017 35.376V27.952C270.017 27.0987 269.783 26.4587 269.313 26.032C268.887 25.6053 268.119 25.392 267.009 25.392H259.457C258.348 25.392 257.559 25.6053 257.089 26.032C256.62 26.4587 256.385 27.0987 256.385 27.952V35.376C256.343 37.0827 257.345 37.936 259.393 37.936ZM288.809 46V17.328H298.089L299.689 18.096C300.926 17.8827 302.313 17.712 303.849 17.584C305.427 17.4133 307.113 17.328 308.905 17.328H312.361C313.598 17.328 314.793 17.4987 315.945 17.84C317.097 18.1387 317.95 18.5867 318.505 19.184C319.23 18.8 320.019 18.48 320.873 18.224C321.726 17.9253 322.814 17.712 324.137 17.584C325.502 17.4133 327.23 17.328 329.321 17.328H332.521C334.654 17.328 336.297 17.6267 337.449 18.224C338.601 18.8213 339.411 19.568 339.881 20.464C340.393 21.36 340.691 22.2773 340.777 23.216C340.905 24.112 340.969 24.88 340.969 25.52V46H329.257V27.952C329.257 26.2453 328.233 25.392 326.185 25.392H322.601C321.918 25.392 321.449 25.4773 321.193 25.648C320.937 25.8187 320.809 26.2027 320.809 26.8V46H308.905V27.952C308.905 26.2453 307.881 25.392 305.833 25.392H302.569C301.758 25.392 301.225 25.4773 300.969 25.648C300.755 25.776 300.649 26.16 300.649 26.8V46H288.809Z" fill="white"/>
<path d="M323.442 46L326.102 41.8L340.942 25.42L323.442 4.84H341.012L349.622 17.51H350.392L359.002 4.84H376.572L373.842 8.97L359.072 25.42L376.572 46H359.002L350.392 33.26H349.622L341.012 46H323.442Z" fill="#14FF00"/>
</g>
<defs>
<clipPath id="clip0_73_2">
<rect width="403" height="51" fill="white"/>
</clipPath>
</defs>
</svg>
