<svg width="278" height="311" viewBox="0 0 278 311" fill="none" xmlns="http://www.w3.org/2000/svg">
<rect x="0.5" y="0.5" width="277" height="310" rx="9.5" stroke="#14FF00"/>
<rect x="31" y="34" width="108" height="7" fill="#14FF00"/>
<rect x="85" y="71" width="108" height="7" fill="#14FF00"/>
<rect x="31" y="149" width="108" height="7" fill="#14FF00"/>
<rect x="114" y="199" width="108" height="7" fill="#14FF00"/>
<rect x="167" y="34" width="26" height="7" fill="#14FF00"/>
<rect x="221" y="149" width="26" height="7" fill="#14FF00"/>
<rect x="221" y="34" width="26" height="7" fill="#14FF00"/>
<rect x="167" y="149" width="26" height="7" fill="#14FF00"/>
<rect x="44" y="199" width="26" height="7" fill="#14FF00"/>
<rect x="222" y="71" width="26" height="7" fill="#14FF00"/>
<rect x="31" y="71" width="26" height="7" fill="#14FF00"/>
<path d="M156.281 261.386V253.386L188.281 239.295V248.5L166.372 257.295L166.668 256.818V257.955L166.372 257.477L188.281 266.273V275.477L156.281 261.386ZM218.168 227.273L203.168 283H194.827L209.827 227.273H218.168ZM256.719 261.386L224.719 275.477V266.273L246.628 257.477L246.332 257.955V256.818L246.628 257.295L224.719 248.5V239.295L256.719 253.386V261.386Z" fill="#14FF00"/>
</svg>
